#!OML:ASF H:\GeneralSubjects\Female5\Project 1\Capture day 1\Session 1\Female5.ASF
:FULLY-SPECIFIED
:DEGREES
356
root -28.5023 15.9609 3.93184 -167.869 44.0683 -180.668
lowerback 8.69575 3.36244 5.29046
upperback -8.62287 5.57525 -1.27216
thorax -13.7853 2.15431 -5.51745
lowerneck -12.1973 3.54838 6.72284
upperneck 28.3901 6.12413 -4.04098
head 11.5896 3.52834 -1.70359
rclavicle -1.54356e-013 -3.02153e-014
rhumerus -45.1096 -2.03675 -65.9305
rradius 80.0637
rwrist 21.2812
rhand -36.7068 -6.56106
rfingers 7.12502
rthumb -9.79175 -36.3134
lclavicle -1.54356e-013 -3.02153e-014
lhumerus -53.2228 22.725 49.9358
lradius 47.5258
lwrist 8.46539
lhand -30.1168 39.4238
lfingers 7.12502
lthumb -3.43027 -290.624
rfemur -12.94 3.63193 23.8595
rtibia 11.4213
rfoot -26.2527 -14.9634
rtoes -0.532716
lfemur -13.2057 -2.2923 -34.2611
ltibia 11.9763
lfoot -30.4349 22.0202
ltoes -58.6298
357
root -28.5433 15.9642 3.96225 -168.015 44.6984 -180.849
lowerback 9.02404 3.46916 5.60059
upperback -8.52355 5.76185 -1.33246
thorax -13.8171 2.19934 -5.81392
lowerneck -12.3752 2.98326 7.06673
upperneck 29.8002 5.80203 -5.10516
head 12.2036 3.36474 -2.19814
rclavicle -2.38045e-014 -7.95139e-016
rhumerus -43.2935 0.461242 -65.1133
rradius 78.801
rwrist 18.6586
rhand -37.7203 -8.44029
rfingers 7.12502
rthumb -10.7695 -38.1442
lclavicle -2.38045e-014 -7.95139e-016
lhumerus -52.4903 22.2115 49.5356
lradius 50.4943
lwrist 8.26652
lhand -32.0626 40.6565
lfingers 7.12502
lthumb -5.3092 -289.43
rfemur -13.5329 4.34093 23.62
rtibia 11.8778
rfoot -25.942 -14.7752
rtoes 1.87674
lfemur -13.8945 -1.61438 -34.3426
ltibia 12.9175
lfoot -30.1048 22.0378
ltoes -59.1816
358
root -28.5858 15.9671 4.00332 -168.25 45.2865 -181.181
lowerback 9.50498 3.81707 6.01187
upperback -8.50174 6.26122 -1.82318
thorax -13.9315 2.3482 -6.72735
lowerneck -12.4273 2.30075 7.55219
upperneck 31.3295 5.10775 -5.44452
head 12.8059 3.16323 -2.51564
rclavicle 3.86139e-014 1.31198e-014
rhumerus -45.1048 -3.38146 -63.8925
rradius 81.4324
rwrist 19.3965
rhand -37.0098 -8.0907
rfingers 7.12502
rthumb -10.0841 -37.8291
lclavicle 3.86139e-014 1.31198e-014
lhumerus -50.7872 20.729 49.2994
lradius 53.2977
lwrist 7.95155
lhand -35.0087 41.9036
lfingers 7.12502
lthumb -8.15318 -288.274
rfemur -14.2808 4.74282 23.3244
rtibia 12.4861
rfoot -25.5775 -14.9159
rtoes 1.28473
lfemur -14.6925 -0.764784 -34.5364
ltibia 14.0528
lfoot -29.7811 21.7103
ltoes -59.457
359
root -28.6266 15.9675 4.05315 -168.454 45.7642 -181.586
lowerback 9.75392 3.58796 5.78357
upperback -8.27782 5.93717 -1.46758
thorax -13.9269 2.23468 -6.15121
lowerneck -12.6813 2.23935 7.18078
upperneck 32.9764 5.80311 -6.36844
head 13.6411 3.40367 -2.71234
rclavicle 1.3654e-014 5.1684e-015
rhumerus -43.782 -2.92356 -62.7529
rradius 81.8077
rwrist 17.7168
rhand -37.8793 -8.85314
rfingers 7.12502
rthumb -10.9229 -38.549
lclavicle 1.3654e-014 5.1684e-015
lhumerus -50.6173 21.0669 48.4668
lradius 56.4348
lwrist 7.4721
lhand -37.9331 43.686
lfingers 7.12502
lthumb -10.9747 -286.621
rfemur -15.0005 5.19338 23.0602
rtibia 12.871
rfoot -25.3639 -15.9353
rtoes -3.02151
lfemur -15.5201 0.0650942 -34.7869
ltibia 15.0044
lfoot -29.56 21.0218
ltoes -59.0942
360
root -28.6598 15.9646 4.10921 -168.628 46.1815 -181.952
lowerback 9.95592 3.38182 5.4717
upperback -8.0089 5.61916 -1.1477
thorax -13.835 2.13505 -5.56002
lowerneck -12.8038 2.2541 5.90633
upperneck 34.2758 6.23995 -5.65098
head 14.2153 3.58916 -2.12827
rclavicle -1.16289e-014 -1.19271e-015
rhumerus -42.3777 -3.15226 -61.3805
rradius 82.3709
rwrist 17.2595
rhand -37.4243 -8.73021
rfingers 7.12502
rthumb -10.484 -38.4488
lclavicle -1.16289e-014 -1.19271e-015
lhumerus -50.1344 21.2857 47.4447
lradius 59.5767
lwrist 6.77159
lhand -39.8953 45.0906
lfingers 7.12502
lthumb -12.8669 -285.326
rfemur -15.4549 6.05663 22.8824
rtibia 12.8596
rfoot -24.9953 -15.359
rtoes 3.73488
lfemur -16.1851 0.994541 -34.994
ltibia 15.5515
lfoot -28.9952 20.6366
ltoes -59.2117
361
root -28.6981 15.9493 4.1711 -168.629 46.4526 -182.278
lowerback 10.005 3.03658 4.98073
upperback -7.74126 5.10596 -0.609839
thorax -13.7003 1.97832 -4.57658
lowerneck -12.8637 2.33751 4.90562
upperneck 35.3851 6.99698 -5.72875
head 14.7714 3.83174 -1.85358
rclavicle 3.14266e-014 3.81667e-014
rhumerus -40.7203 -2.81918 -60.0195
rradius 82.8737
rwrist 16.3551
rhand -37.9987 -8.91567
rfingers 7.12502
rthumb -11.038 -38.6054
lclavicle 3.14266e-014 3.81667e-014
lhumerus -49.9789 21.9977 46.209
lradius 62.7152
lwrist 6.02061
lhand -41.1697 46.1677
lfingers 7.12502
lthumb -14.0952 -284.33
rfemur -15.9154 7.20627 22.6864
rtibia 12.6012
rfoot -25.2058 -16.9668
rtoes 1.73119
lfemur -17.0954 1.93235 -35.2446
ltibia 16.1147
lfoot -27.7888 20.8775
ltoes -60.5033
362
root -28.7336 15.9317 4.24151 -168.643 46.6511 -182.614
lowerback 10.1342 2.99602 4.74671
upperback -7.59421 5.0089 -0.538516
thorax -13.6405 1.95869 -4.34954
lowerneck -12.6167 2.02724 4.82093
upperneck 36.2998 7.00096 -6.07231
head 15.1663 3.84583 -1.9813
rclavicle -3.97569e-015 3.26007e-014
rhumerus -40.0874 -3.61388 -58.6569
rradius 83.4194
rwrist 15.5171
rhand -39.1776 -8.9163
rfingers 7.12502
rthumb -12.1749 -38.542
lclavicle -3.97569e-015 3.26007e-014
lhumerus -48.708 21.648 45.2828
lradius 65.6067
lwrist 5.54134
lhand -42.4003 47.0369
lfingers 7.12502
lthumb -15.2808 -283.548
rfemur -16.3596 8.32105 22.4613
rtibia 12.3132
rfoot -25.4822 -17.932
rtoes 2.89272
lfemur -18.1409 2.94452 -35.5156
ltibia 16.8803
lfoot -26.4016 20.9972
ltoes -61.6053
